<?xml version="1.0" encoding="UTF-8"?>
<svg id="SVGRoot" width="1024" height="1024" version="1.1" viewBox="0 0 1024 1024" xmlns="http://www.w3.org/2000/svg"><defs><clipPath id="clipPath26"><path d="M0 1296H1728V0H0z"/></clipPath></defs><g transform="matrix(1.0357 0 0 -1.0357 -396.36 1081.1)"><g clip-path="url(#clipPath26)"><g><g transform="translate(601.75 603.49)" stroke="#fff" stroke-width=".99975"><path d="m-1.0721-18.706s26.932 54.862 63.901 35.404c36.969-19.457 30.703-56.803 65.727-75.287 35.023-18.485 53.392-75.673 40.526-92.817-8.755-20.431-14.793-19.724-21.241-26.148-11.265 1.0761-17.734 2.3934-29.033 4.889-95.018 22.031-120.04 91.277-117.95 122.27" stroke="none"/></g><g transform="translate(649.57 211.63)"><path d="m0 0s-39.401-39.888-119.18-32.104c-79.776 7.783-86.586 35.023-80.262 45.238 6.324 10.216 83.667 32.592 111.88 62.751z"/></g><g transform="translate(872.61 173.21)"><path d="m0 0s-2.675-24.809 18.972-31.862c21.646-7.053 48.886-14.35 52.292-19.214 0 0 10.215 32.835-7.297 51.076z"/></g><g transform="translate(996.4 252.98)"><path d="m0 0c2.918-20.917 37.455-22.376 87.559-39.888 50.102-17.511 62.75-63.237 52.048-78.802-10.702-15.567-15.08-31.619-15.08-31.619s-42.319 13.134-92.423 19.457c-50.102 6.324-105.47 100.21-81.677 130.85"/></g><path d="m625.27 845.95s37.271-49.536 88.425-46.85c51.153 2.687 105.53 38.871 65.909 133.23 0 0-25.41 77.964-89.813 91.16-64.402 13.196-116.81-42.496-128.29-96.235-1.568-7.336-2.683-15.072-3.426-23.053l-0.439-34.898c17.511-132.8-115.93-425.63-11.512-574.16 104.42-148.53 261.38-131.01 356.72-127.77 95.342 3.244 151.77 48.644 160.85 57.725 9.08 9.08 196.52 44.752 225.06 52.535 28.538 7.782 39.564 38.914 6.486 36.309s-45.401 0.66-132.96 0.011c-87.559-0.648-122.58 27.241-167.34 54.481-44.752 27.24-108.26 41.291-198.47 51.887-15.234 1.7894-22.719 2.5602-46.889 5.6194-208.63-175.34-320.21 15.273-148.91 158.85 0.27461 101.49 24.598 261.16 24.598 261.16"/><g transform="translate(690.76 268.55)"><path d="m0 0s-23.998-43.454 18.809-100.53c42.806-57.076 119.34-92.748 134.9-79.777 15.566 12.972 8.918 92.261-9.08 96.153-17.998 3.891-52.535-11.188-52.535-11.188s49.13 20.43 39.887 34.05c-9.242 13.621-74.911 55.454-106.04 61.291"/></g></g><g transform="translate(709.89 937.89)" fill="#fff"><path d="m0 0c0-5.508-4.465-9.972-9.972-9.972s-9.972 4.464-9.972 9.972c0 5.507 4.465 9.972 9.972 9.972s9.972-4.465 9.972-9.972" fill="#fff"/></g><g transform="matrix(.84945 0 0 .8314 761.71 468.31)" fill="gray"><path d="m-49.473-47.52c-242.82-190.05-270.78 59.418-141.56 149.84 1.877-76.005 61.325-134.68 141.56-149.84z" fill="#000"/></g><g transform="translate(672.77 585.25)" fill="#fff"><path d="m0 0c0 0-10.945 6.811-9.485 2.189 1.459-4.621 5.946-22.62 4.675-38.185-1.27-15.567-1.514-26.511 3.108-29.43 4.621-2.919 10.458-1.459 10.458 8.027C8.756-47.914.0.0.0.0" fill="#fff"/></g><g transform="translate(683.31 573.25)" fill="#fff"><path d="M0 0 2.676 3.405-.892 4.946-2.432 2.473zM-10.408 11.096 4.707 5.649C6.238 5.097 6.803 3.223 5.832 1.916L2.208-2.957C1.396-4.048-.153-4.26-1.228-3.427l-12.034 9.333c-1.405 1.091-1.558 3.157-.328 4.443.82.855 2.067 1.148 3.182.747" fill="#fff"/></g></g></g></svg>
